<?xml version="1.0" standalone="no"?>
<!DOCTYPE svg PUBLIC "-//W3C//DTD SVG 1.1//EN" "http://www.w3.org/Graphics/SVG/1.1/DTD/svg11.dtd">
<svg t="1762922807092" class="icon" viewBox="0 0 1024 1024" version="1.1" xmlns="http://www.w3.org/2000/svg" p-id="3587" xmlns:xlink="http://www.w3.org/1999/xlink" width="150" height="150">
  <path d="M194.412424 0h48.761976v48.761976h-48.761976zM194.412424 48.761976h48.761976v48.761977h-48.761976zM194.412424 97.523953h48.761976v48.761976h-48.761976z" fill="#3A2802" p-id="3588"></path>
  <path d="M194.412424 146.285929h48.761976v48.761977h-48.761976z" fill="#FFFF41" p-id="3589"></path>
  <path d="M194.412424 195.0464h48.761976v48.761976h-48.761976z" fill="#FFFF41" p-id="3590"></path>
  <path d="M194.412424 243.808376h48.761976v48.761977h-48.761976z" fill="#3A2802" p-id="3591"></path>
  <path d="M194.412424 292.570353h48.761976v48.761976h-48.761976z" fill="#FFFF41" p-id="3592"></path>
  <path d="M194.412424 341.332329h48.761976v48.761977h-48.761976zM194.412424 390.094306h48.761976v48.761976h-48.761976zM194.412424 438.856282h48.761976v48.761977h-48.761976zM194.412424 487.618259h48.761976v48.761976h-48.761976z" fill="#FF6800" p-id="3593"></path>
  <path d="M194.412424 536.381741h48.761976v48.761977h-48.761976zM194.412424 585.143718h48.761976v48.761976h-48.761976z" fill="#3A2802" p-id="3594"></path>
  <path d="M194.412424 633.905694h48.761976v48.761977h-48.761976zM194.412424 682.667671h48.761976v48.761976h-48.761976z" fill="#FF41C8" p-id="3595"></path>
  <path d="M194.412424 731.429647h48.761976v48.761977h-48.761976z" fill="#A300F1" p-id="3596"></path>
  <path d="M194.412424 780.191624h48.761976v48.761976h-48.761976zM194.412424 828.9536h48.761976v48.761976h-48.761976z" fill="#1D4AD8" p-id="3597"></path>
  <path d="M194.412424 877.714071h48.761976v48.761976h-48.761976z" fill="#1D4AD8" p-id="3598"></path>
  <path d="M194.412424 926.476047h48.761976v48.761977h-48.761976zM243.165365 0h48.761976v48.761976h-48.761976zM243.165365 48.761976h48.761976v48.761977h-48.761976z" fill="#3A2802" p-id="3599"></path>
  <path d="M243.165365 97.523953h48.761976v48.761976h-48.761976zM243.165365 146.285929h48.761976v48.761977h-48.761976z" fill="#FFFF41" p-id="3600"></path>
  <path d="M243.165365 195.0464h48.761976v48.761976h-48.761976zM243.165365 243.808376h48.761976v48.761977h-48.761976zM243.165365 292.570353h48.761976v48.761976h-48.761976zM243.165365 341.332329h48.761976v48.761977h-48.761976zM243.165365 390.094306h48.761976v48.761976h-48.761976z" fill="#FF6800" p-id="3601"></path>
  <path d="M243.165365 438.856282h48.761976v48.761977h-48.761976zM243.165365 487.618259h48.761976v48.761976h-48.761976zM243.165365 536.381741h48.761976v48.761977h-48.761976z" fill="#FF41C8" p-id="3602"></path>
  <path d="M243.165365 585.143718h48.761976v48.761976h-48.761976zM243.165365 633.905694h48.761976v48.761977h-48.761976z" fill="#3A2802" p-id="3603"></path>
  <path d="M243.165365 682.667671h48.761976v48.761976h-48.761976z" fill="#FF41C8" p-id="3604"></path>
  <path d="M243.165365 731.429647h48.761976v48.761977h-48.761976zM243.165365 780.191624h48.761976v48.761976h-48.761976z" fill="#A300F1" p-id="3605"></path>
  <path d="M243.165365 828.9536h48.761976v48.761976h-48.761976z" fill="#1D4AD8" p-id="3606"></path>
  <path d="M243.165365 877.714071h48.761976v48.761976h-48.761976zM243.165365 926.476047h48.761976v48.761977h-48.761976zM291.928847 0h48.761977v48.761976h-48.761977zM291.928847 48.761976h48.761977v48.761977h-48.761977zM291.928847 97.523953h48.761977v48.761976h-48.761977z" fill="#3A2802" p-id="3607"></path>
  <path d="M291.928847 146.285929h48.761977v48.761977h-48.761977z" fill="#FFFF41" p-id="3608"></path>
  <path d="M291.928847 195.0464h48.761977v48.761976h-48.761977zM291.928847 243.808376h48.761977v48.761977h-48.761977zM291.928847 292.570353h48.761977v48.761976h-48.761977z" fill="#FFFF41" p-id="3609"></path>
  <path d="M291.928847 341.332329h48.761977v48.761977h-48.761977zM291.928847 390.094306h48.761977v48.761976h-48.761977zM291.928847 438.856282h48.761977v48.761977h-48.761977z" fill="#FF6800" p-id="3610"></path>
  <path d="M291.928847 487.618259h48.761977v48.761976h-48.761977zM291.928847 536.381741h48.761977v48.761977h-48.761977zM291.928847 585.143718h48.761977v48.761976h-48.761977z" fill="#FF41C8" p-id="3611"></path>
  <path d="M291.928847 633.905694h48.761977v48.761977h-48.761977zM291.928847 682.667671h48.761977v48.761976h-48.761977z" fill="#3A2802" p-id="3612"></path>
  <path d="M291.928847 731.429647h48.761977v48.761977h-48.761977z" fill="#FF41C8" p-id="3613"></path>
  <path d="M291.928847 780.191624h48.761977v48.761976h-48.761977z" fill="#A300F1" p-id="3614"></path>
  <path d="M291.928847 828.9536h48.761977v48.761976h-48.761977z" fill="#3A2802" p-id="3615"></path>
  <path d="M291.928847 877.714071h48.761977v48.761976h-48.761977zM291.928847 926.476047h48.761977v48.761977h-48.761977zM340.693835 48.761976h48.761977v48.761977h-48.761977zM340.693835 97.523953h48.761977v48.761976h-48.761977zM340.693835 146.285929h48.761977v48.761977h-48.761977z" fill="#3A2802" p-id="3616"></path>
  <path d="M340.693835 195.0464h48.761977v48.761976h-48.761977zM340.693835 243.808376h48.761977v48.761977h-48.761977zM340.693835 292.570353h48.761977v48.761976h-48.761977z" fill="#3A2802" p-id="3617"></path>
  <path d="M388.058353 292.570353h48.761976v48.761976h-48.761976zM388.058353 341.332329h48.761976v48.761977h-48.761976zM388.058353 390.094306h48.761976v48.761976h-48.761976z" fill="#3A2802" p-id="3618"></path>
  <path d="M388.058353 438.856282h48.761976v48.761977h-48.761976z" fill="#FFFF41" p-id="3619"></path>
  <path d="M388.058353 487.618259h48.761976v48.761976h-48.761976zM388.058353 536.381741h48.761976v48.761977h-48.761976z" fill="#FF6800" p-id="3620"></path>
  <path d="M388.058353 585.143718h48.761976v48.761976h-48.761976zM388.058353 633.905694h48.761976v48.761977h-48.761976z" fill="#FF41C8" p-id="3621"></path>
  <path d="M388.058353 682.667671h48.761976v48.761976h-48.761976z" fill="#3A2802" p-id="3622"></path>
  <path d="M388.058353 731.429647h48.761976v48.761977h-48.761976zM388.058353 780.191624h48.761976v48.761976h-48.761976zM388.058353 877.714071h48.761976v48.761976h-48.761976zM388.058353 926.476047h48.761976v48.761977h-48.761976zM436.823341 341.332329h48.761977v48.761977h-48.761977zM436.823341 390.094306h48.761977v48.761976h-48.761977zM436.823341 438.856282h48.761977v48.761977h-48.761977zM436.823341 487.618259h48.761977v48.761976h-48.761977zM436.823341 536.381741h48.761977v48.761977h-48.761977zM436.823341 585.143718h48.761977v48.761976h-48.761977zM485.588329 585.143718h48.761977v48.761976h-48.761977zM485.588329 633.905694h48.761977v48.761977h-48.761977zM485.588329 682.667671h48.761977v48.761976h-48.761977z" fill="#3A2802" p-id="3623"></path>
  <path d="M485.588329 731.429647h48.761977v48.761977h-48.761977zM485.588329 780.191624h48.761977v48.761976h-48.761977zM485.588329 828.9536h48.761977v48.761976h-48.761977zM534.353318 585.143718h48.761976v48.761976h-48.761976zM534.353318 633.905694h48.761976v48.761977h-48.761976z" fill="#3A2802" p-id="3624"></path>
  <path d="M583.106259 633.905694H631.868235v48.761977h-48.761976zM631.871247 633.905694h48.761977v48.761977h-48.761977zM631.871247 585.143718h48.761977v48.761976h-48.761977z" fill="#3A2802" p-id="3625"></path>
  <path d="M680.634729 585.143718h48.761977v48.761976h-48.761977z" fill="#FF6800" p-id="3626"></path>
  <path d="M680.634729 536.381741h48.761977v48.761977h-48.761977zM680.634729 487.618259h48.761977v48.761976h-48.761977z" fill="#3A2802" p-id="3627"></path>
  <path d="M729.399718 585.143718h48.761976v48.761976h-48.761976z" fill="#FF41C8" p-id="3628"></path>
  <path d="M729.399718 536.381741h48.761976v48.761977h-48.761976z" fill="#FF6800" p-id="3629"></path>
  <path d="M729.399718 487.618259h48.761976v48.761976h-48.761976z" fill="#FFFF41" p-id="3630"></path>
  <path d="M729.399718 438.856282h48.761976v48.761977h-48.761976zM729.399718 390.094306h48.761976v48.761976h-48.761976z" fill="#3A2802" p-id="3631"></path>
  <path d="M778.152659 585.143718h48.761976v48.761976h-48.761976zM778.152659 536.381741h48.761976v48.761977h-48.761976zM778.152659 487.618259h48.761976v48.761976h-48.761976z" fill="#FF6800" p-id="3632"></path>
  <path d="M778.152659 438.856282h48.761976v48.761977h-48.761976z" fill="#FFFF41" p-id="3633"></path>
  <path d="M778.152659 390.094306h48.761976v48.761976h-48.761976zM778.152659 341.332329h48.761976v48.761977h-48.761976z" fill="#3A2802" p-id="3634"></path>
  <path d="M826.917647 585.143718h48.761977v48.761976h-48.761977zM826.917647 536.381741h48.761977v48.761977h-48.761977z" fill="#FF6800" p-id="3635"></path>
  <path d="M826.917647 487.618259h48.761977v48.761976h-48.761977z" fill="#FFFF41" p-id="3636"></path>
  <path d="M826.917647 438.856282h48.761977v48.761977h-48.761977z" fill="#FF6800" p-id="3637"></path>
  <path d="M826.917647 390.094306h48.761977v48.761976h-48.761977z" fill="#FFFF41" p-id="3638"></path>
  <path d="M826.917647 341.332329h48.761977v48.761977h-48.761977zM826.917647 292.570353h48.761977v48.761976h-48.761977z" fill="#3A2802" p-id="3639"></path>
  <path d="M826.917647 633.905694h48.761977v48.761977h-48.761977z" fill="#FF41C8" p-id="3640"></path>
  <path d="M875.682635 585.143718h48.761977v48.761976h-48.761977z" fill="#3A2802" p-id="3641"></path>
  <path d="M875.682635 536.381741h48.761977v48.761977h-48.761977z" fill="#FFFF41" p-id="3642"></path>
  <path d="M924.447624 536.381741h48.761976v48.761977h-48.761976z" fill="#3A2802" p-id="3643"></path>
  <path d="M875.682635 487.618259h48.761977v48.761976h-48.761977z" fill="#FF6800" p-id="3644"></path>
  <path d="M875.682635 438.856282h48.761977v48.761977h-48.761977zM875.682635 390.094306h48.761977v48.761976h-48.761977z" fill="#FFFF41" p-id="3645"></path>
  <path d="M875.682635 341.332329h48.761977v48.761977h-48.761977zM875.682635 292.570353h48.761977v48.761976h-48.761977zM924.447624 487.618259h48.761976v48.761976h-48.761976z" fill="#3A2802" p-id="3646"></path>
  <path d="M924.447624 438.856282h48.761976v48.761977h-48.761976z" fill="#FFFF41" p-id="3647"></path>
  <path d="M973.200565 438.856282h48.761976v48.761977h-48.761976zM924.447624 390.094306h48.761976v48.761976h-48.761976z" fill="#3A2802" p-id="3648"></path>
  <path d="M973.200565 390.094306h48.761976v48.761976h-48.761976zM924.447624 341.332329h48.761976v48.761977h-48.761976z" fill="#3A2802" p-id="3649"></path>
  <path d="M973.200565 341.332329h48.761976v48.761977h-48.761976zM924.447624 292.570353h48.761976v48.761976h-48.761976z" fill="#3A2802" p-id="3650"></path>
  <path d="M973.200565 292.570353h48.761976v48.761976h-48.761976z" fill="#3A2802" p-id="3651"></path>
  <path d="M680.634729 633.905694h48.761977v48.761977h-48.761977zM729.399718 633.905694h48.761976v48.761977h-48.761976z" fill="#FF41C8" p-id="3652"></path>
  <path d="M778.152659 633.905694h48.761976v48.761977h-48.761976zM534.353318 682.667671h48.761976v48.761976h-48.761976z" fill="#3A2802" p-id="3653"></path>
  <path d="M583.106259 682.667671H631.868235v48.761976h-48.761976zM631.871247 682.667671h48.761977v48.761976h-48.761977zM680.634729 682.667671h48.761977v48.761976h-48.761977zM729.399718 682.667671h48.761976v48.761976h-48.761976z" fill="#3A2802" p-id="3654"></path>
  <path d="M778.152659 682.667671h48.761976v48.761976h-48.761976zM534.353318 731.429647h48.761976v48.761977h-48.761976z" fill="#3A2802" p-id="3655"></path>
  <path d="M583.106259 731.429647H631.868235v48.761977h-48.761976z" fill="#FF41C8" p-id="3656"></path>
  <path d="M631.871247 731.429647h48.761977v48.761977h-48.761977z" fill="#A300F1" p-id="3657"></path>
  <path d="M680.634729 731.429647h48.761977v48.761977h-48.761977zM729.399718 731.429647h48.761976v48.761977h-48.761976z" fill="#FF41C8" p-id="3658"></path>
  <path d="M778.152659 731.429647h48.761976v48.761977h-48.761976zM534.353318 780.191624h48.761976v48.761976h-48.761976z" fill="#3A2802" p-id="3659"></path>
  <path d="M583.106259 780.191624H631.868235v48.761976h-48.761976zM631.871247 780.191624h48.761977v48.761976h-48.761977zM680.634729 780.191624h48.761977v48.761976h-48.761977z" fill="#A300F1" p-id="3660"></path>
  <path d="M729.399718 780.191624h48.761976v48.761976h-48.761976z" fill="#1D4AD8" p-id="3661"></path>
  <path d="M778.152659 780.191624h48.761976v48.761976h-48.761976zM534.353318 828.9536h48.761976v48.761976h-48.761976z" fill="#3A2802" p-id="3662"></path>
  <path d="M583.106259 828.9536H631.868235v48.761976h-48.761976z" fill="#1D4AD8" p-id="3663"></path>
  <path d="M631.871247 828.9536h48.761977v48.761976h-48.761977z" fill="#A300F1" p-id="3664"></path>
  <path d="M680.634729 828.9536h48.761977v48.761976h-48.761977z" fill="#1D4AD8" p-id="3665"></path>
  <path d="M729.399718 828.9536h48.761976v48.761976h-48.761976z" fill="#3A2802" p-id="3666"></path>
  <path d="M778.152659 828.9536h48.761976v48.761976h-48.761976zM534.353318 877.714071h48.761976v48.761976h-48.761976z" fill="#3A2802" p-id="3667"></path>
  <path d="M583.106259 877.714071H631.868235v48.761976h-48.761976zM631.871247 877.714071h48.761977v48.761976h-48.761977z" fill="#1D4AD8" p-id="3668"></path>
  <path d="M680.634729 877.714071h48.761977v48.761976h-48.761977zM729.399718 877.714071h48.761976v48.761976h-48.761976zM534.353318 926.476047h48.761976v48.761977h-48.761976z" fill="#3A2802" p-id="3669"></path>
  <path d="M583.106259 926.476047H631.868235v48.761977h-48.761976zM631.871247 926.476047h48.761977v48.761977h-48.761977zM680.634729 926.476047h48.761977v48.761977h-48.761977zM534.353318 975.238024h48.761976V1024h-48.761976z" fill="#3A2802" p-id="3670"></path>
  <path d="M583.106259 975.238024H631.868235V1024h-48.761976zM631.871247 975.238024h48.761977V1024h-48.761977zM534.353318 536.381741h48.761976v48.761977h-48.761976z" fill="#3A2802" p-id="3671"></path>
  <path d="M583.106259 536.381741H631.868235v48.761977h-48.761976zM534.353318 487.618259h48.761976v48.761976h-48.761976z" fill="#3A2802" p-id="3672"></path>
  <path d="M583.106259 487.618259H631.868235v48.761976h-48.761976zM436.823341 633.905694h48.761977v48.761977h-48.761977zM436.823341 682.667671h48.761977v48.761976h-48.761977z" fill="#3A2802" p-id="3673"></path>
  <path d="M436.823341 731.429647h48.761977v48.761977h-48.761977zM436.823341 780.191624h48.761977v48.761976h-48.761977zM436.823341 828.9536h48.761977v48.761976h-48.761977z" fill="#3A2802" p-id="3674"></path>
  <path d="M436.823341 877.714071h48.761977v48.761976h-48.761977zM388.058353 243.808376h48.761976v48.761977h-48.761976z" fill="#3A2802" p-id="3675"></path>
  <path d="M340.693835 341.332329h48.761977v48.761977h-48.761977zM340.693835 390.094306h48.761977v48.761976h-48.761977z" fill="#FFFF41" p-id="3676"></path>
  <path d="M340.693835 438.856282h48.761977v48.761977h-48.761977zM340.693835 487.618259h48.761977v48.761976h-48.761977z" fill="#FF6800" p-id="3677"></path>
  <path d="M340.693835 536.381741h48.761977v48.761977h-48.761977zM340.693835 585.143718h48.761977v48.761976h-48.761977zM340.693835 633.905694h48.761977v48.761977h-48.761977z" fill="#FF41C8" p-id="3678"></path>
  <path d="M340.693835 682.667671h48.761977v48.761976h-48.761977z" fill="#3A2802" p-id="3679"></path>
  <path d="M340.693835 731.429647h48.761977v48.761977h-48.761977z" fill="#FF41C8" p-id="3680"></path>
  <path d="M340.693835 780.191624h48.761977v48.761976h-48.761977zM340.693835 828.9536h48.761977v48.761976h-48.761977zM340.693835 926.476047h48.761977v48.761977h-48.761977zM145.647435 48.761976H194.409412v48.761977H145.647435zM145.647435 97.523953H194.409412v48.761976H145.647435zM145.647435 146.285929H194.409412v48.761977H145.647435z" fill="#3A2802" p-id="3681"></path>
  <path d="M145.647435 195.0464H194.409412v48.761976H145.647435zM145.647435 243.808376H194.409412v48.761977H145.647435zM145.647435 292.570353H194.409412v48.761976H145.647435z" fill="#3A2802" p-id="3682"></path>
  <path d="M98.282918 292.570353h48.761976v48.761976H98.282918zM98.282918 341.332329h48.761976v48.761977H98.282918zM98.282918 390.094306h48.761976v48.761976H98.282918zM98.282918 438.856282h48.761976v48.761977H98.282918zM49.517929 438.856282h48.761977v48.761977H49.517929zM49.517929 625.546541h48.761977v48.761977H49.517929zM49.517929 723.070494h48.761977v48.761977H49.517929zM0.752941 723.070494h48.761977v48.761977H0.752941zM49.517929 820.594447h48.761977v48.761977H49.517929zM0.752941 820.594447h48.761977v48.761977H0.752941zM98.282918 487.618259h48.761976v48.761976H98.282918zM49.517929 487.618259h48.761977v48.761976H49.517929zM49.517929 674.308518h48.761977v48.761976H49.517929zM0.752941 674.308518h48.761977v48.761976H0.752941zM49.517929 771.832471h48.761977v48.761976H49.517929zM0.752941 771.832471h48.761977v48.761976H0.752941zM49.517929 869.356424h48.761977v48.761976H49.517929zM98.282918 536.381741h48.761976v48.761977H98.282918zM98.282918 585.143718h48.761976v48.761976H98.282918zM98.282918 633.905694h48.761976v48.761977H98.282918z" fill="#3A2802" p-id="3683"></path>
  <path d="M98.282918 682.667671h48.761976v48.761976H98.282918z" fill="#A300F1" p-id="3684"></path>
  <path d="M98.282918 731.429647h48.761976v48.761977H98.282918zM98.282918 780.191624h48.761976v48.761976H98.282918zM98.282918 828.9536h48.761976v48.761976H98.282918z" fill="#1D4AD8" p-id="3685"></path>
  <path d="M98.282918 877.714071h48.761976v48.761976H98.282918zM98.282918 926.476047h48.761976v48.761977H98.282918zM145.647435 341.332329H194.409412v48.761977H145.647435zM145.647435 390.094306H194.409412v48.761976H145.647435zM145.647435 438.856282H194.409412v48.761977H145.647435z" fill="#3A2802" p-id="3686"></path>
  <path d="M145.647435 487.618259H194.409412v48.761976H145.647435z" fill="#FF41C8" p-id="3687"></path>
  <path d="M145.647435 536.381741H194.409412v48.761977H145.647435zM145.647435 585.143718H194.409412v48.761976H145.647435z" fill="#3A2802" p-id="3688"></path>
  <path d="M145.647435 633.905694H194.409412v48.761977H145.647435zM145.647435 682.667671H194.409412v48.761976H145.647435z" fill="#FF41C8" p-id="3689"></path>
  <path d="M145.647435 731.429647H194.409412v48.761977H145.647435z" fill="#A300F1" p-id="3690"></path>
  <path d="M145.647435 780.191624H194.409412v48.761976H145.647435zM145.647435 828.9536H194.409412v48.761976H145.647435z" fill="#1D4AD8" p-id="3691"></path>
  <path d="M145.647435 877.714071H194.409412v48.761976H145.647435z" fill="#1D4AD8" p-id="3692"></path>
  <path d="M145.647435 926.476047H194.409412v48.761977H145.647435z" fill="#3A2802" p-id="3693"></path>
</svg>